# xmcd
#
# Track frame offsets:
#	150
#	18227
#	31547
#	49089
#	65865
#	80490
#	93381
#	109733
#	129627
#	141235
#	156411
#	166084
#	180281
#	197365
#	216045
#	222278
#	236749
#	251299
#	264587
#	286639
#	302419
#	320993
#
# Disc length: 4447 seconds
#
# Revision: 0
# Processed by: cddbd v1.5.2PL0 Copyright (c) Steve Scherf et al.
# Submitted via: EZCDAudioConverter 2.1.7.1
#
DISCID=2e115d16
DTITLE=V/A - Fallin' Off The Reel V4
DYEAR=1900
DGENRE=
TTITLE0=Lee Fields and The Expressions - You're The Kind Of Girl
TTITLE1=Liam Bailey - Please Love Me
TTITLE2=The Olympians - The Rain Song
TTITLE3=Lady - Money
TTITLE4=Bacao Rhythm and Steel Band - P.I.M.P.
TTITLE5=Qunestine Strong - One Hundred Years From Now
TTITLE6=Beau Williams - I'll Be Home Soon
TTITLE7=Ghetto Brothers - Girl From The Mountain
TTITLE8=Original Brothers - Blackout
TTITLE9=Liam Bailey - When Will They Learn
TTITLE10=The Fabulous 3 - Nightbird
TTITLE11=Lee Fields and The Expressions - Just Can't Win [Radio Edit]
TTITLE12=Zafari - King Masuru
TTITLE13=Shirley Nanette - All Of Your Life
TTITLE14=Lady - Good Lovin' [HLIC Rmx]
TTITLE15=Bacao Rhythm and Steel Band - Laventille Road March
TTITLE16=Lee Fields and His Band - Fought For Survival
TTITLE17=El Michels Affair - Blind Love
TTITLE18=Lady - Get Ready [Ticklah Rmx Instrumental]
TTITLE19=Liam Bailey - On My Mind
TTITLE20=Lee Fields and The Expressions - Faithful Man [Bare Bones Version]
TTITLE21=JD and The Evil's Dynamite Band - Sunday Kind Of Love
EXTD=
EXTT0=
EXTT1=
EXTT2=
EXTT3=
EXTT4=
EXTT5=
EXTT6=
EXTT7=
EXTT8=
EXTT9=
EXTT10=
EXTT11=
EXTT12=
EXTT13=
EXTT14=
EXTT15=
EXTT16=
EXTT17=
EXTT18=
EXTT19=
EXTT20=
EXTT21=
PLAYORDER=
